<mxfile host="Electron" modified="2023-08-21T04:03:03.616Z" agent="Mozilla/5.0 (Windows NT 10.0; Win64; x64) AppleWebKit/537.36 (KHTML, like Gecko) draw.io/21.6.8 Chrome/114.0.5735.289 Electron/25.5.0 Safari/537.36" etag="qrj6cqdHq8rt1ScYqCzv" version="21.6.8" type="device">
  <diagram id="C5RBs43oDa-KdzZeNtuy" name="Page-1">
    <mxGraphModel dx="2555" dy="2201" grid="1" gridSize="10" guides="1" tooltips="1" connect="1" arrows="1" fold="1" page="1" pageScale="1" pageWidth="827" pageHeight="1169" math="0" shadow="0">
      <root>
        <mxCell id="WIyWlLk6GJQsqaUBKTNV-0" />
        <mxCell id="WIyWlLk6GJQsqaUBKTNV-1" parent="WIyWlLk6GJQsqaUBKTNV-0" />
        <mxCell id="9dOhz2E6i0ULVNafJrJ5-24" style="edgeStyle=orthogonalEdgeStyle;rounded=0;orthogonalLoop=1;jettySize=auto;html=1;startArrow=classic;startFill=1;endArrow=none;endFill=0;endSize=6;startSize=8;" edge="1" parent="WIyWlLk6GJQsqaUBKTNV-1" source="FuvlfRPMmMPqdxBqMTxY-0" target="FuvlfRPMmMPqdxBqMTxY-1">
          <mxGeometry relative="1" as="geometry" />
        </mxCell>
        <mxCell id="9dOhz2E6i0ULVNafJrJ5-25" value="- estado" style="edgeLabel;html=1;align=center;verticalAlign=middle;resizable=0;points=[];" vertex="1" connectable="0" parent="9dOhz2E6i0ULVNafJrJ5-24">
          <mxGeometry x="-0.1108" y="1" relative="1" as="geometry">
            <mxPoint x="-19" y="-15" as="offset" />
          </mxGeometry>
        </mxCell>
        <mxCell id="9dOhz2E6i0ULVNafJrJ5-26" value="1" style="edgeLabel;html=1;align=center;verticalAlign=middle;resizable=0;points=[];" vertex="1" connectable="0" parent="9dOhz2E6i0ULVNafJrJ5-24">
          <mxGeometry x="-0.4184" relative="1" as="geometry">
            <mxPoint x="-2" y="14" as="offset" />
          </mxGeometry>
        </mxCell>
        <mxCell id="FuvlfRPMmMPqdxBqMTxY-0" value="&lt;p style=&quot;margin:0px;margin-top:4px;text-align:center;&quot;&gt;&amp;lt;&amp;lt;enumeration&amp;gt;&amp;gt;&lt;br&gt;&lt;b&gt;Estado&lt;/b&gt;&lt;/p&gt;&lt;hr&gt;&lt;p style=&quot;margin:0px;margin-left:8px;text-align:left;&quot;&gt;CREADA&lt;/p&gt;&lt;p style=&quot;margin:0px;margin-left:8px;text-align:left;&quot;&gt;ATENDIDA&lt;/p&gt;&lt;p style=&quot;margin:0px;margin-left:8px;text-align:left;&quot;&gt;CANCELADA&lt;/p&gt;" style="shape=rect;html=1;overflow=fill;whiteSpace=wrap;" parent="WIyWlLk6GJQsqaUBKTNV-1" vertex="1">
          <mxGeometry x="-230" y="486" width="200" height="100" as="geometry" />
        </mxCell>
        <mxCell id="9dOhz2E6i0ULVNafJrJ5-22" value="- atencionVeterinaria" style="edgeStyle=orthogonalEdgeStyle;rounded=0;orthogonalLoop=1;jettySize=auto;html=1;entryX=0;entryY=0.5;entryDx=0;entryDy=0;endArrow=diamondThin;endFill=0;endSize=14;exitX=0.882;exitY=-0.048;exitDx=0;exitDy=0;exitPerimeter=0;startArrow=classic;startFill=1;" edge="1" parent="WIyWlLk6GJQsqaUBKTNV-1" source="FuvlfRPMmMPqdxBqMTxY-1" target="9dOhz2E6i0ULVNafJrJ5-17">
          <mxGeometry x="-0.9546" y="-62" relative="1" as="geometry">
            <mxPoint as="offset" />
          </mxGeometry>
        </mxCell>
        <mxCell id="9dOhz2E6i0ULVNafJrJ5-23" value="1" style="edgeLabel;html=1;align=center;verticalAlign=middle;resizable=0;points=[];" vertex="1" connectable="0" parent="9dOhz2E6i0ULVNafJrJ5-22">
          <mxGeometry x="-0.3774" y="-6" relative="1" as="geometry">
            <mxPoint x="-24" y="59" as="offset" />
          </mxGeometry>
        </mxCell>
        <mxCell id="9dOhz2E6i0ULVNafJrJ5-30" value="- mascota" style="edgeStyle=orthogonalEdgeStyle;rounded=0;orthogonalLoop=1;jettySize=auto;html=1;startArrow=diamondThin;startFill=0;endSize=8;startSize=14;" edge="1" parent="WIyWlLk6GJQsqaUBKTNV-1" source="FuvlfRPMmMPqdxBqMTxY-1">
          <mxGeometry x="0.9395" y="40" relative="1" as="geometry">
            <mxPoint x="1100" y="380" as="targetPoint" />
            <mxPoint as="offset" />
          </mxGeometry>
        </mxCell>
        <mxCell id="9dOhz2E6i0ULVNafJrJ5-31" value="1" style="edgeLabel;html=1;align=center;verticalAlign=middle;resizable=0;points=[];" vertex="1" connectable="0" parent="9dOhz2E6i0ULVNafJrJ5-30">
          <mxGeometry x="-0.5064" y="3" relative="1" as="geometry">
            <mxPoint x="596" y="-124" as="offset" />
          </mxGeometry>
        </mxCell>
        <mxCell id="FuvlfRPMmMPqdxBqMTxY-1" value="AtencionVeterinaria" style="swimlane;fontStyle=1;align=center;verticalAlign=top;childLayout=stackLayout;horizontal=1;startSize=26;horizontalStack=0;resizeParent=1;resizeParentMax=0;resizeLast=0;collapsible=1;marginBottom=0;whiteSpace=wrap;html=1;" parent="WIyWlLk6GJQsqaUBKTNV-1" vertex="1">
          <mxGeometry x="80" y="480" width="190" height="112" as="geometry" />
        </mxCell>
        <mxCell id="FuvlfRPMmMPqdxBqMTxY-2" value="- codigo: Long" style="text;strokeColor=none;fillColor=none;align=left;verticalAlign=top;spacingLeft=4;spacingRight=4;overflow=hidden;rotatable=0;points=[[0,0.5],[1,0.5]];portConstraint=eastwest;whiteSpace=wrap;html=1;" parent="FuvlfRPMmMPqdxBqMTxY-1" vertex="1">
          <mxGeometry y="26" width="190" height="26" as="geometry" />
        </mxCell>
        <mxCell id="FuvlfRPMmMPqdxBqMTxY-5" value="- fecha: LocalDateTime" style="text;strokeColor=none;fillColor=none;align=left;verticalAlign=top;spacingLeft=4;spacingRight=4;overflow=hidden;rotatable=0;points=[[0,0.5],[1,0.5]];portConstraint=eastwest;whiteSpace=wrap;html=1;" parent="FuvlfRPMmMPqdxBqMTxY-1" vertex="1">
          <mxGeometry y="52" width="190" height="26" as="geometry" />
        </mxCell>
        <mxCell id="FuvlfRPMmMPqdxBqMTxY-3" value="" style="line;strokeWidth=1;fillColor=none;align=left;verticalAlign=middle;spacingTop=-1;spacingLeft=3;spacingRight=3;rotatable=0;labelPosition=right;points=[];portConstraint=eastwest;strokeColor=inherit;" parent="FuvlfRPMmMPqdxBqMTxY-1" vertex="1">
          <mxGeometry y="78" width="190" height="8" as="geometry" />
        </mxCell>
        <mxCell id="FuvlfRPMmMPqdxBqMTxY-4" value="+ enRangoDeFecha() : Boolean" style="text;strokeColor=none;fillColor=none;align=left;verticalAlign=top;spacingLeft=4;spacingRight=4;overflow=hidden;rotatable=0;points=[[0,0.5],[1,0.5]];portConstraint=eastwest;whiteSpace=wrap;html=1;" parent="FuvlfRPMmMPqdxBqMTxY-1" vertex="1">
          <mxGeometry y="86" width="190" height="26" as="geometry" />
        </mxCell>
        <mxCell id="FuvlfRPMmMPqdxBqMTxY-28" style="edgeStyle=orthogonalEdgeStyle;rounded=0;orthogonalLoop=1;jettySize=auto;html=1;endArrow=block;endFill=0;endSize=14;" parent="WIyWlLk6GJQsqaUBKTNV-1" source="FuvlfRPMmMPqdxBqMTxY-7" target="FuvlfRPMmMPqdxBqMTxY-11" edge="1">
          <mxGeometry relative="1" as="geometry" />
        </mxCell>
        <mxCell id="9dOhz2E6i0ULVNafJrJ5-32" value="- veterinario" style="edgeStyle=orthogonalEdgeStyle;rounded=0;orthogonalLoop=1;jettySize=auto;html=1;entryX=0.25;entryY=0;entryDx=0;entryDy=0;endArrow=diamondThin;endFill=0;startArrow=classic;startFill=1;startSize=8;endSize=14;" edge="1" parent="WIyWlLk6GJQsqaUBKTNV-1" source="FuvlfRPMmMPqdxBqMTxY-7" target="FuvlfRPMmMPqdxBqMTxY-1">
          <mxGeometry x="-0.9214" y="40" relative="1" as="geometry">
            <mxPoint y="-1" as="offset" />
          </mxGeometry>
        </mxCell>
        <mxCell id="9dOhz2E6i0ULVNafJrJ5-33" value="1" style="edgeLabel;html=1;align=center;verticalAlign=middle;resizable=0;points=[];" vertex="1" connectable="0" parent="9dOhz2E6i0ULVNafJrJ5-32">
          <mxGeometry x="0.7244" y="5" relative="1" as="geometry">
            <mxPoint x="168" y="-289" as="offset" />
          </mxGeometry>
        </mxCell>
        <mxCell id="FuvlfRPMmMPqdxBqMTxY-7" value="Veterinario" style="swimlane;fontStyle=1;align=center;verticalAlign=top;childLayout=stackLayout;horizontal=1;startSize=26;horizontalStack=0;resizeParent=1;resizeParentMax=0;resizeLast=0;collapsible=1;marginBottom=0;whiteSpace=wrap;html=1;" parent="WIyWlLk6GJQsqaUBKTNV-1" vertex="1">
          <mxGeometry x="240" y="27" width="160" height="60" as="geometry" />
        </mxCell>
        <mxCell id="FuvlfRPMmMPqdxBqMTxY-8" value="- codigo: String" style="text;strokeColor=none;fillColor=none;align=left;verticalAlign=top;spacingLeft=4;spacingRight=4;overflow=hidden;rotatable=0;points=[[0,0.5],[1,0.5]];portConstraint=eastwest;whiteSpace=wrap;html=1;" parent="FuvlfRPMmMPqdxBqMTxY-7" vertex="1">
          <mxGeometry y="26" width="160" height="26" as="geometry" />
        </mxCell>
        <mxCell id="FuvlfRPMmMPqdxBqMTxY-9" value="" style="line;strokeWidth=1;fillColor=none;align=left;verticalAlign=middle;spacingTop=-1;spacingLeft=3;spacingRight=3;rotatable=0;labelPosition=right;points=[];portConstraint=eastwest;strokeColor=inherit;" parent="FuvlfRPMmMPqdxBqMTxY-7" vertex="1">
          <mxGeometry y="52" width="160" height="8" as="geometry" />
        </mxCell>
        <mxCell id="FuvlfRPMmMPqdxBqMTxY-11" value="&amp;lt;&amp;lt;abstract&amp;gt;&amp;gt;&lt;br&gt;&lt;i&gt;Persona&lt;/i&gt;" style="swimlane;fontStyle=1;align=center;verticalAlign=top;childLayout=stackLayout;horizontal=1;startSize=40;horizontalStack=0;resizeParent=1;resizeParentMax=0;resizeLast=0;collapsible=1;marginBottom=0;whiteSpace=wrap;html=1;" parent="WIyWlLk6GJQsqaUBKTNV-1" vertex="1">
          <mxGeometry x="610" y="-180" width="160" height="126" as="geometry">
            <mxRectangle x="350" y="140" width="100" height="30" as="alternateBounds" />
          </mxGeometry>
        </mxCell>
        <mxCell id="FuvlfRPMmMPqdxBqMTxY-12" value="- nombre: String" style="text;strokeColor=none;fillColor=none;align=left;verticalAlign=top;spacingLeft=4;spacingRight=4;overflow=hidden;rotatable=0;points=[[0,0.5],[1,0.5]];portConstraint=eastwest;whiteSpace=wrap;html=1;" parent="FuvlfRPMmMPqdxBqMTxY-11" vertex="1">
          <mxGeometry y="40" width="160" height="26" as="geometry" />
        </mxCell>
        <mxCell id="FuvlfRPMmMPqdxBqMTxY-15" value="- telefono: String" style="text;strokeColor=none;fillColor=none;align=left;verticalAlign=top;spacingLeft=4;spacingRight=4;overflow=hidden;rotatable=0;points=[[0,0.5],[1,0.5]];portConstraint=eastwest;whiteSpace=wrap;html=1;" parent="FuvlfRPMmMPqdxBqMTxY-11" vertex="1">
          <mxGeometry y="66" width="160" height="26" as="geometry" />
        </mxCell>
        <mxCell id="FuvlfRPMmMPqdxBqMTxY-16" value="- correo: String" style="text;strokeColor=none;fillColor=none;align=left;verticalAlign=top;spacingLeft=4;spacingRight=4;overflow=hidden;rotatable=0;points=[[0,0.5],[1,0.5]];portConstraint=eastwest;whiteSpace=wrap;html=1;" parent="FuvlfRPMmMPqdxBqMTxY-11" vertex="1">
          <mxGeometry y="92" width="160" height="26" as="geometry" />
        </mxCell>
        <mxCell id="FuvlfRPMmMPqdxBqMTxY-13" value="" style="line;strokeWidth=1;fillColor=none;align=left;verticalAlign=middle;spacingTop=-1;spacingLeft=3;spacingRight=3;rotatable=0;labelPosition=right;points=[];portConstraint=eastwest;strokeColor=inherit;" parent="FuvlfRPMmMPqdxBqMTxY-11" vertex="1">
          <mxGeometry y="118" width="160" height="8" as="geometry" />
        </mxCell>
        <mxCell id="FuvlfRPMmMPqdxBqMTxY-27" style="edgeStyle=orthogonalEdgeStyle;rounded=0;orthogonalLoop=1;jettySize=auto;html=1;endArrow=block;endFill=0;endSize=14;" parent="WIyWlLk6GJQsqaUBKTNV-1" source="FuvlfRPMmMPqdxBqMTxY-22" target="FuvlfRPMmMPqdxBqMTxY-11" edge="1">
          <mxGeometry relative="1" as="geometry" />
        </mxCell>
        <mxCell id="9dOhz2E6i0ULVNafJrJ5-36" value="- dueno" style="edgeStyle=orthogonalEdgeStyle;rounded=0;orthogonalLoop=1;jettySize=auto;html=1;entryX=0.75;entryY=0;entryDx=0;entryDy=0;exitX=1;exitY=0.5;exitDx=0;exitDy=0;endArrow=diamondThin;endFill=0;startArrow=classic;startFill=1;startSize=8;endSize=14;" edge="1" parent="WIyWlLk6GJQsqaUBKTNV-1" source="FuvlfRPMmMPqdxBqMTxY-23" target="FuvlfRPMmMPqdxBqMTxY-30">
          <mxGeometry x="-0.757" y="13" relative="1" as="geometry">
            <mxPoint x="-1" as="offset" />
          </mxGeometry>
        </mxCell>
        <mxCell id="9dOhz2E6i0ULVNafJrJ5-37" value="1" style="edgeLabel;html=1;align=center;verticalAlign=middle;resizable=0;points=[];" vertex="1" connectable="0" parent="9dOhz2E6i0ULVNafJrJ5-36">
          <mxGeometry x="0.0322" y="1" relative="1" as="geometry">
            <mxPoint x="-31" y="-54" as="offset" />
          </mxGeometry>
        </mxCell>
        <mxCell id="FuvlfRPMmMPqdxBqMTxY-22" value="Cliente" style="swimlane;fontStyle=1;align=center;verticalAlign=top;childLayout=stackLayout;horizontal=1;startSize=26;horizontalStack=0;resizeParent=1;resizeParentMax=0;resizeLast=0;collapsible=1;marginBottom=0;whiteSpace=wrap;html=1;" parent="WIyWlLk6GJQsqaUBKTNV-1" vertex="1">
          <mxGeometry x="940" y="14" width="160" height="86" as="geometry" />
        </mxCell>
        <mxCell id="FuvlfRPMmMPqdxBqMTxY-23" value="- cedula: String" style="text;strokeColor=none;fillColor=none;align=left;verticalAlign=top;spacingLeft=4;spacingRight=4;overflow=hidden;rotatable=0;points=[[0,0.5],[1,0.5]];portConstraint=eastwest;whiteSpace=wrap;html=1;" parent="FuvlfRPMmMPqdxBqMTxY-22" vertex="1">
          <mxGeometry y="26" width="160" height="26" as="geometry" />
        </mxCell>
        <mxCell id="FuvlfRPMmMPqdxBqMTxY-26" value="- direccion: String" style="text;strokeColor=none;fillColor=none;align=left;verticalAlign=top;spacingLeft=4;spacingRight=4;overflow=hidden;rotatable=0;points=[[0,0.5],[1,0.5]];portConstraint=eastwest;whiteSpace=wrap;html=1;" parent="FuvlfRPMmMPqdxBqMTxY-22" vertex="1">
          <mxGeometry y="52" width="160" height="26" as="geometry" />
        </mxCell>
        <mxCell id="FuvlfRPMmMPqdxBqMTxY-24" value="" style="line;strokeWidth=1;fillColor=none;align=left;verticalAlign=middle;spacingTop=-1;spacingLeft=3;spacingRight=3;rotatable=0;labelPosition=right;points=[];portConstraint=eastwest;strokeColor=inherit;" parent="FuvlfRPMmMPqdxBqMTxY-22" vertex="1">
          <mxGeometry y="78" width="160" height="8" as="geometry" />
        </mxCell>
        <mxCell id="FuvlfRPMmMPqdxBqMTxY-44" value="*" style="edgeStyle=orthogonalEdgeStyle;rounded=0;orthogonalLoop=1;jettySize=auto;html=1;startArrow=classic;startFill=1;endArrow=diamondThin;endFill=0;endSize=14;startSize=8;exitX=0.25;exitY=0;exitDx=0;exitDy=0;" parent="WIyWlLk6GJQsqaUBKTNV-1" source="FuvlfRPMmMPqdxBqMTxY-30" target="FuvlfRPMmMPqdxBqMTxY-22" edge="1">
          <mxGeometry x="-0.8333" y="-10" relative="1" as="geometry">
            <mxPoint as="offset" />
          </mxGeometry>
        </mxCell>
        <mxCell id="FuvlfRPMmMPqdxBqMTxY-45" value="- mascotas" style="edgeLabel;html=1;align=center;verticalAlign=middle;resizable=0;points=[];" parent="FuvlfRPMmMPqdxBqMTxY-44" vertex="1" connectable="0">
          <mxGeometry x="-0.2989" y="4" relative="1" as="geometry">
            <mxPoint x="-34" y="46" as="offset" />
          </mxGeometry>
        </mxCell>
        <mxCell id="FuvlfRPMmMPqdxBqMTxY-30" value="Mascota" style="swimlane;fontStyle=1;align=center;verticalAlign=top;childLayout=stackLayout;horizontal=1;startSize=26;horizontalStack=0;resizeParent=1;resizeParentMax=0;resizeLast=0;collapsible=1;marginBottom=0;whiteSpace=wrap;html=1;" parent="WIyWlLk6GJQsqaUBKTNV-1" vertex="1">
          <mxGeometry x="1040" y="240" width="160" height="138" as="geometry" />
        </mxCell>
        <mxCell id="FuvlfRPMmMPqdxBqMTxY-31" value="- codigo: String" style="text;strokeColor=none;fillColor=none;align=left;verticalAlign=top;spacingLeft=4;spacingRight=4;overflow=hidden;rotatable=0;points=[[0,0.5],[1,0.5]];portConstraint=eastwest;whiteSpace=wrap;html=1;" parent="FuvlfRPMmMPqdxBqMTxY-30" vertex="1">
          <mxGeometry y="26" width="160" height="26" as="geometry" />
        </mxCell>
        <mxCell id="FuvlfRPMmMPqdxBqMTxY-34" value="- nombre: String" style="text;strokeColor=none;fillColor=none;align=left;verticalAlign=top;spacingLeft=4;spacingRight=4;overflow=hidden;rotatable=0;points=[[0,0.5],[1,0.5]];portConstraint=eastwest;whiteSpace=wrap;html=1;" parent="FuvlfRPMmMPqdxBqMTxY-30" vertex="1">
          <mxGeometry y="52" width="160" height="26" as="geometry" />
        </mxCell>
        <mxCell id="FuvlfRPMmMPqdxBqMTxY-35" value="- edad: Integer" style="text;strokeColor=none;fillColor=none;align=left;verticalAlign=top;spacingLeft=4;spacingRight=4;overflow=hidden;rotatable=0;points=[[0,0.5],[1,0.5]];portConstraint=eastwest;whiteSpace=wrap;html=1;" parent="FuvlfRPMmMPqdxBqMTxY-30" vertex="1">
          <mxGeometry y="78" width="160" height="26" as="geometry" />
        </mxCell>
        <mxCell id="FuvlfRPMmMPqdxBqMTxY-36" value="- raza: String" style="text;strokeColor=none;fillColor=none;align=left;verticalAlign=top;spacingLeft=4;spacingRight=4;overflow=hidden;rotatable=0;points=[[0,0.5],[1,0.5]];portConstraint=eastwest;whiteSpace=wrap;html=1;" parent="FuvlfRPMmMPqdxBqMTxY-30" vertex="1">
          <mxGeometry y="104" width="160" height="26" as="geometry" />
        </mxCell>
        <mxCell id="FuvlfRPMmMPqdxBqMTxY-32" value="" style="line;strokeWidth=1;fillColor=none;align=left;verticalAlign=middle;spacingTop=-1;spacingLeft=3;spacingRight=3;rotatable=0;labelPosition=right;points=[];portConstraint=eastwest;strokeColor=inherit;" parent="FuvlfRPMmMPqdxBqMTxY-30" vertex="1">
          <mxGeometry y="130" width="160" height="8" as="geometry" />
        </mxCell>
        <mxCell id="FuvlfRPMmMPqdxBqMTxY-41" value="1" style="edgeStyle=orthogonalEdgeStyle;rounded=0;orthogonalLoop=1;jettySize=auto;html=1;endArrow=none;endFill=0;startArrow=classic;startFill=1;endSize=6;startSize=8;" parent="WIyWlLk6GJQsqaUBKTNV-1" source="FuvlfRPMmMPqdxBqMTxY-38" target="FuvlfRPMmMPqdxBqMTxY-30" edge="1">
          <mxGeometry x="-0.6667" y="-9" relative="1" as="geometry">
            <mxPoint as="offset" />
          </mxGeometry>
        </mxCell>
        <mxCell id="FuvlfRPMmMPqdxBqMTxY-43" value="- tipo" style="edgeLabel;html=1;align=center;verticalAlign=middle;resizable=0;points=[];" parent="FuvlfRPMmMPqdxBqMTxY-41" vertex="1" connectable="0">
          <mxGeometry x="0.0188" y="2" relative="1" as="geometry">
            <mxPoint x="31" y="9" as="offset" />
          </mxGeometry>
        </mxCell>
        <mxCell id="FuvlfRPMmMPqdxBqMTxY-38" value="&lt;p style=&quot;margin:0px;margin-top:4px;text-align:center;&quot;&gt;&amp;lt;&amp;lt;enumeration&amp;gt;&amp;gt;&lt;br&gt;&lt;b&gt;Tipo&lt;/b&gt;&lt;/p&gt;&lt;hr&gt;&lt;p style=&quot;margin:0px;margin-left:8px;text-align:left;&quot;&gt;GATO&lt;/p&gt;&lt;p style=&quot;margin:0px;margin-left:8px;text-align:left;&quot;&gt;PERRO&lt;/p&gt;" style="shape=rect;html=1;overflow=fill;whiteSpace=wrap;" parent="WIyWlLk6GJQsqaUBKTNV-1" vertex="1">
          <mxGeometry x="1320" y="269" width="160" height="80" as="geometry" />
        </mxCell>
        <mxCell id="FuvlfRPMmMPqdxBqMTxY-40" value="1" style="edgeStyle=orthogonalEdgeStyle;rounded=0;orthogonalLoop=1;jettySize=auto;html=1;endArrow=none;endFill=0;startArrow=classic;startFill=1;endSize=6;startSize=10;entryX=0.75;entryY=1;entryDx=0;entryDy=0;" parent="WIyWlLk6GJQsqaUBKTNV-1" source="FuvlfRPMmMPqdxBqMTxY-39" target="FuvlfRPMmMPqdxBqMTxY-30" edge="1">
          <mxGeometry x="-0.8246" y="-10" relative="1" as="geometry">
            <mxPoint as="offset" />
          </mxGeometry>
        </mxCell>
        <mxCell id="FuvlfRPMmMPqdxBqMTxY-42" value="- sexo" style="edgeLabel;html=1;align=center;verticalAlign=middle;resizable=0;points=[];" parent="FuvlfRPMmMPqdxBqMTxY-40" vertex="1" connectable="0">
          <mxGeometry x="-0.7018" y="4" relative="1" as="geometry">
            <mxPoint x="11" y="12" as="offset" />
          </mxGeometry>
        </mxCell>
        <mxCell id="FuvlfRPMmMPqdxBqMTxY-39" value="&lt;p style=&quot;margin:0px;margin-top:4px;text-align:center;&quot;&gt;&amp;lt;&amp;lt;enumeration&amp;gt;&amp;gt;&lt;br&gt;&lt;b&gt;Sexo&lt;/b&gt;&lt;/p&gt;&lt;hr&gt;&lt;p style=&quot;margin:0px;margin-left:8px;text-align:left;&quot;&gt;FEMENINO&lt;/p&gt;&lt;p style=&quot;margin:0px;margin-left:8px;text-align:left;&quot;&gt;MASCULINO&lt;/p&gt;" style="shape=rect;html=1;overflow=fill;whiteSpace=wrap;" parent="WIyWlLk6GJQsqaUBKTNV-1" vertex="1">
          <mxGeometry x="1320" y="496" width="160" height="80" as="geometry" />
        </mxCell>
        <mxCell id="9dOhz2E6i0ULVNafJrJ5-0" value="Clinica" style="swimlane;fontStyle=1;align=center;verticalAlign=top;childLayout=stackLayout;horizontal=1;startSize=26;horizontalStack=0;resizeParent=1;resizeParentMax=0;resizeLast=0;collapsible=1;marginBottom=0;whiteSpace=wrap;html=1;" vertex="1" parent="WIyWlLk6GJQsqaUBKTNV-1">
          <mxGeometry x="660" y="240" width="160" height="86" as="geometry" />
        </mxCell>
        <mxCell id="9dOhz2E6i0ULVNafJrJ5-2" value="" style="line;strokeWidth=1;fillColor=none;align=left;verticalAlign=middle;spacingTop=-1;spacingLeft=3;spacingRight=3;rotatable=0;labelPosition=right;points=[];portConstraint=eastwest;strokeColor=inherit;" vertex="1" parent="9dOhz2E6i0ULVNafJrJ5-0">
          <mxGeometry y="26" width="160" height="8" as="geometry" />
        </mxCell>
        <mxCell id="9dOhz2E6i0ULVNafJrJ5-3" value="+&amp;nbsp;obtenerHistorialClinico()&lt;div style=&quot;background-color:#2f2f2f;padding:0px 0px 0px 2px;&quot;&gt;&lt;div style=&quot;color: rgb(170, 170, 170); font-family: Consolas; font-size: 10pt;&quot;&gt;&lt;p style=&quot;background-color:#373737;margin:0;&quot;&gt;&lt;span style=&quot;color:#d9e8f7;&quot;&gt;&lt;/span&gt;&lt;/p&gt;&lt;/div&gt;&lt;/div&gt;" style="text;strokeColor=none;fillColor=none;align=left;verticalAlign=top;spacingLeft=4;spacingRight=4;overflow=hidden;rotatable=0;points=[[0,0.5],[1,0.5]];portConstraint=eastwest;whiteSpace=wrap;html=1;" vertex="1" parent="9dOhz2E6i0ULVNafJrJ5-0">
          <mxGeometry y="34" width="160" height="26" as="geometry" />
        </mxCell>
        <mxCell id="9dOhz2E6i0ULVNafJrJ5-4" value="+ citasEnRangoDeDias()&lt;div style=&quot;background-color:#2f2f2f;padding:0px 0px 0px 2px;&quot;&gt;&lt;div style=&quot;color: rgb(170, 170, 170); font-family: Consolas; font-size: 10pt;&quot;&gt;&lt;p style=&quot;background-color:#373737;margin:0;&quot;&gt;&lt;span style=&quot;color:#d9e8f7;&quot;&gt;&lt;/span&gt;&lt;/p&gt;&lt;/div&gt;&lt;/div&gt;" style="text;strokeColor=none;fillColor=none;align=left;verticalAlign=top;spacingLeft=4;spacingRight=4;overflow=hidden;rotatable=0;points=[[0,0.5],[1,0.5]];portConstraint=eastwest;whiteSpace=wrap;html=1;" vertex="1" parent="9dOhz2E6i0ULVNafJrJ5-0">
          <mxGeometry y="60" width="160" height="26" as="geometry" />
        </mxCell>
        <mxCell id="9dOhz2E6i0ULVNafJrJ5-27" style="edgeStyle=orthogonalEdgeStyle;rounded=0;orthogonalLoop=1;jettySize=auto;html=1;exitX=0.5;exitY=0;exitDx=0;exitDy=0;endArrow=diamondThin;endFill=1;startArrow=classic;startFill=1;endSize=14;" edge="1" parent="WIyWlLk6GJQsqaUBKTNV-1" source="9dOhz2E6i0ULVNafJrJ5-13" target="9dOhz2E6i0ULVNafJrJ5-0">
          <mxGeometry relative="1" as="geometry">
            <Array as="points">
              <mxPoint x="440" y="280" />
            </Array>
          </mxGeometry>
        </mxCell>
        <mxCell id="9dOhz2E6i0ULVNafJrJ5-28" value="- facturas" style="edgeLabel;html=1;align=center;verticalAlign=middle;resizable=0;points=[];" vertex="1" connectable="0" parent="9dOhz2E6i0ULVNafJrJ5-27">
          <mxGeometry x="-0.3806" y="3" relative="1" as="geometry">
            <mxPoint x="-84" y="25" as="offset" />
          </mxGeometry>
        </mxCell>
        <mxCell id="9dOhz2E6i0ULVNafJrJ5-29" value="*" style="edgeLabel;html=1;align=center;verticalAlign=middle;resizable=0;points=[];" vertex="1" connectable="0" parent="9dOhz2E6i0ULVNafJrJ5-27">
          <mxGeometry x="0.1272" y="-4" relative="1" as="geometry">
            <mxPoint x="-98" y="16" as="offset" />
          </mxGeometry>
        </mxCell>
        <mxCell id="9dOhz2E6i0ULVNafJrJ5-34" value="- cliente" style="edgeStyle=orthogonalEdgeStyle;rounded=0;orthogonalLoop=1;jettySize=auto;html=1;entryX=0.25;entryY=1;entryDx=0;entryDy=0;startArrow=diamondThin;startFill=0;endSize=8;startSize=14;" edge="1" parent="WIyWlLk6GJQsqaUBKTNV-1" source="9dOhz2E6i0ULVNafJrJ5-13" target="FuvlfRPMmMPqdxBqMTxY-22">
          <mxGeometry x="0.9464" y="30" relative="1" as="geometry">
            <mxPoint as="offset" />
          </mxGeometry>
        </mxCell>
        <mxCell id="9dOhz2E6i0ULVNafJrJ5-35" value="1" style="edgeLabel;html=1;align=center;verticalAlign=middle;resizable=0;points=[];" vertex="1" connectable="0" parent="9dOhz2E6i0ULVNafJrJ5-34">
          <mxGeometry x="-0.4852" y="-3" relative="1" as="geometry">
            <mxPoint x="278" y="-270" as="offset" />
          </mxGeometry>
        </mxCell>
        <mxCell id="9dOhz2E6i0ULVNafJrJ5-13" value="Factura" style="swimlane;fontStyle=1;align=center;verticalAlign=top;childLayout=stackLayout;horizontal=1;startSize=26;horizontalStack=0;resizeParent=1;resizeParentMax=0;resizeLast=0;collapsible=1;marginBottom=0;whiteSpace=wrap;html=1;" vertex="1" parent="WIyWlLk6GJQsqaUBKTNV-1">
          <mxGeometry x="360" y="318" width="160" height="138" as="geometry" />
        </mxCell>
        <mxCell id="9dOhz2E6i0ULVNafJrJ5-14" value="- id: Long" style="text;strokeColor=none;fillColor=none;align=left;verticalAlign=top;spacingLeft=4;spacingRight=4;overflow=hidden;rotatable=0;points=[[0,0.5],[1,0.5]];portConstraint=eastwest;whiteSpace=wrap;html=1;" vertex="1" parent="9dOhz2E6i0ULVNafJrJ5-13">
          <mxGeometry y="26" width="160" height="26" as="geometry" />
        </mxCell>
        <mxCell id="9dOhz2E6i0ULVNafJrJ5-17" value="- costo: Double" style="text;strokeColor=none;fillColor=none;align=left;verticalAlign=top;spacingLeft=4;spacingRight=4;overflow=hidden;rotatable=0;points=[[0,0.5],[1,0.5]];portConstraint=eastwest;whiteSpace=wrap;html=1;" vertex="1" parent="9dOhz2E6i0ULVNafJrJ5-13">
          <mxGeometry y="52" width="160" height="26" as="geometry" />
        </mxCell>
        <mxCell id="9dOhz2E6i0ULVNafJrJ5-18" value="- fecha: LocalDate" style="text;strokeColor=none;fillColor=none;align=left;verticalAlign=top;spacingLeft=4;spacingRight=4;overflow=hidden;rotatable=0;points=[[0,0.5],[1,0.5]];portConstraint=eastwest;whiteSpace=wrap;html=1;" vertex="1" parent="9dOhz2E6i0ULVNafJrJ5-13">
          <mxGeometry y="78" width="160" height="26" as="geometry" />
        </mxCell>
        <mxCell id="9dOhz2E6i0ULVNafJrJ5-19" value="- observaciones: String" style="text;strokeColor=none;fillColor=none;align=left;verticalAlign=top;spacingLeft=4;spacingRight=4;overflow=hidden;rotatable=0;points=[[0,0.5],[1,0.5]];portConstraint=eastwest;whiteSpace=wrap;html=1;" vertex="1" parent="9dOhz2E6i0ULVNafJrJ5-13">
          <mxGeometry y="104" width="160" height="26" as="geometry" />
        </mxCell>
        <mxCell id="9dOhz2E6i0ULVNafJrJ5-15" value="" style="line;strokeWidth=1;fillColor=none;align=left;verticalAlign=middle;spacingTop=-1;spacingLeft=3;spacingRight=3;rotatable=0;labelPosition=right;points=[];portConstraint=eastwest;strokeColor=inherit;" vertex="1" parent="9dOhz2E6i0ULVNafJrJ5-13">
          <mxGeometry y="130" width="160" height="8" as="geometry" />
        </mxCell>
      </root>
    </mxGraphModel>
  </diagram>
</mxfile>
